# xmcd
#
# Track frame offsets:
#	150
#	16369
#	39772
#	65034
#	95480
#	113308
#	136159
#	162228
#	184705
#	206683
#	226582
#	254345
#	283333
#	304043
#
# Disc length: 4275 seconds
#
# Revision: 1
# Processed by: cddbd v1.5.2PL0 Copyright (c) Steve Scherf et al.
# Submitted via: audiograbber 1.83.01
#
DISCID=b410b10e
DTITLE=Various Artist - FTG Presents The Vaults Volume 5 [CD3]
DYEAR=2017
DGENRE=Dance
TTITLE0=Champaign - I'm On Fire (7" Version)
TTITLE1=The Reddings - Remote Control (Remastered)
TTITLE2=Evelynn Champagne King - Get Loose (12" Vocal Mix)
TTITLE3=Chocolate Milk - Who's Getting It Now (12" Version)
TTITLE4=Khemistry - Can You Feel My Love (Remastered)
TTITLE5=Merge - Take It To The Top (Remastered)
TTITLE6=Steven and Sterling - Can I Be With You Tonight (12" Remix)
TTITLE7=Bloodstone - Go On And Cry (7" Edit)
TTITLE8=The Jones Girls - Keep It Coming (12" Version)
TTITLE9=The Jones Girls - You Can't Have My Love (Remastered)
TTITLE10=Mtume - Prime Time (12" Version)
TTITLE11=Johnny Kemp - Cover Girl (Vocal 12" Mix)
TTITLE12=Surface - Let's Try Again (Extended Version)
TTITLE13=Luther Vandross - So Amazing (Remastered)
EXTD=
EXTT0=
EXTT1=
EXTT2=
EXTT3=
EXTT4=
EXTT5=
EXTT6=
EXTT7=
EXTT8=
EXTT9=
EXTT10=
EXTT11=
EXTT12=
EXTT13=
PLAYORDER=
